<svg width="7" height="7" viewBox="0 0 7 7" fill="none" xmlns="http://www.w3.org/2000/svg">
<path d="M3.50016 0.582031C5.11104 0.582031 6.41683 1.88782 6.41683 3.4987C6.41683 5.10957 5.11104 6.41537 3.50016 6.41537C1.88929 6.41537 0.583496 5.10957 0.583496 3.4987C0.583496 1.88782 1.88929 0.582031 3.50016 0.582031ZM3.50016 1.16536C2.88132 1.16536 2.28783 1.4112 1.85025 1.84878C1.41266 2.28637 1.16683 2.87986 1.16683 3.4987C1.16683 4.11754 1.41266 4.71103 1.85025 5.14861C2.28783 5.5862 2.88132 5.83203 3.50016 5.83203C4.119 5.83203 4.71249 5.5862 5.15008 5.14861C5.58766 4.71103 5.8335 4.11754 5.8335 3.4987C5.8335 2.87986 5.58766 2.28637 5.15008 1.84878C4.71249 1.4112 4.119 1.16536 3.50016 1.16536ZM3.50016 1.7487C3.5716 1.74871 3.64055 1.77494 3.69394 1.82241C3.74732 1.86988 3.78143 1.93529 3.78979 2.00624L3.79183 2.04036V3.37795L4.58137 4.16749C4.63368 4.21998 4.66405 4.29041 4.66631 4.36448C4.66857 4.43855 4.64256 4.5107 4.59355 4.56628C4.54454 4.62186 4.47621 4.6567 4.40244 4.66373C4.32867 4.67076 4.25499 4.64944 4.19637 4.60412L4.16895 4.57991L3.29395 3.70491C3.24862 3.65954 3.21951 3.60049 3.21112 3.53691L3.2085 3.4987V2.04036C3.2085 1.96301 3.23923 1.88882 3.29392 1.83413C3.34862 1.77943 3.42281 1.7487 3.50016 1.7487Z" fill="url(#paint0_linear_419_4057)"/>
<defs>
<linearGradient id="paint0_linear_419_4057" x1="3.50016" y1="0.582031" x2="3.50016" y2="6.41536" gradientUnits="userSpaceOnUse">
<stop stop-color="#15CBE4"/>
<stop offset="1" stop-color="#25D082"/>
</linearGradient>
</defs>
</svg>
