<svg width="13" height="11" viewBox="0 0 13 11" fill="none" xmlns="http://www.w3.org/2000/svg">
<path d="M1.3 10.4C0.9425 10.4 0.636567 10.2728 0.3822 10.0184C0.127833 9.76408 0.000433333 9.45793 0 9.1V1.3C0 0.9425 0.1274 0.636567 0.3822 0.3822C0.637 0.127833 0.942933 0.000433333 1.3 0H11.7C12.0575 0 12.3636 0.1274 12.6184 0.3822C12.8732 0.637 13.0004 0.942933 13 1.3V9.1C13 9.4575 12.8728 9.76365 12.6184 10.0184C12.3641 10.2732 12.0579 10.4004 11.7 10.4H1.3ZM6.5 5.85L1.3 2.6V9.1H11.7V2.6L6.5 5.85ZM6.5 4.55L11.7 1.3H1.3L6.5 4.55ZM1.3 2.6V1.3V9.1V2.6Z" fill="url(#paint0_linear_756_921)" fill-opacity="0.8"/>
<defs>
<linearGradient id="paint0_linear_756_921" x1="13.65" y1="10.3993" x2="4.89952" y2="-2.97039" gradientUnits="userSpaceOnUse">
<stop stop-color="#4AD49D"/>
<stop offset="1" stop-color="#63C7D3"/>
</linearGradient>
</defs>
</svg>
