<svg width="6" height="8" viewBox="0 0 6 8" fill="none" xmlns="http://www.w3.org/2000/svg">
<path d="M2.99938 4.36399C2.72968 4.36399 2.46603 4.28402 2.24178 4.13418C2.01753 3.98434 1.84275 3.77137 1.73954 3.5222C1.63633 3.27302 1.60933 2.99884 1.66194 2.73432C1.71456 2.4698 1.84443 2.22683 2.03514 2.03612C2.22585 1.84541 2.46883 1.71554 2.73335 1.66292C2.99787 1.61031 3.27205 1.63731 3.52122 1.74052C3.77039 1.84373 3.98336 2.01851 4.1332 2.24276C4.28304 2.46701 4.36301 2.73065 4.36301 3.00036C4.36258 3.36188 4.21877 3.70848 3.96314 3.96411C3.7075 4.21975 3.3609 4.36356 2.99938 4.36399ZM2.99938 2.18217C2.83756 2.18217 2.67937 2.23016 2.54482 2.32006C2.41027 2.40997 2.3054 2.53775 2.24348 2.68725C2.18155 2.83675 2.16535 3.00126 2.19692 3.15997C2.22849 3.31869 2.30641 3.46447 2.42084 3.5789C2.53526 3.69332 2.68105 3.77125 2.83976 3.80282C2.99847 3.83439 3.16298 3.81818 3.31248 3.75626C3.46199 3.69433 3.58977 3.58946 3.67967 3.45491C3.76957 3.32036 3.81756 3.16218 3.81756 3.00036C3.81734 2.78343 3.73107 2.57544 3.57768 2.42205C3.42429 2.26866 3.21631 2.18239 2.99938 2.18217Z" fill="url(#paint0_linear_419_4039)"/>
<path d="M3 7.63636L0.699274 4.923C0.667305 4.88226 0.635667 4.84125 0.604365 4.8C0.211558 4.2822 -0.000729391 3.64993 1.88296e-06 3C1.88296e-06 2.20435 0.316072 1.44129 0.878681 0.878679C1.44129 0.31607 2.20435 0 3 0C3.79565 0 4.55871 0.31607 5.12132 0.878679C5.68393 1.44129 6 2.20435 6 3C6.00063 3.64962 5.78845 4.28157 5.39591 4.79918L5.39564 4.8C5.39564 4.8 5.31382 4.90745 5.30154 4.92191L3 7.63636ZM1.03991 4.47136C1.03991 4.47136 1.10346 4.55536 1.11791 4.57336L3 6.79309L4.88454 4.57036C4.89654 4.55536 4.96036 4.47082 4.96064 4.47054C5.28169 4.04758 5.4552 3.53101 5.45454 3C5.45454 2.34901 5.19594 1.72469 4.73563 1.26437C4.27531 0.804057 3.65099 0.545454 3 0.545454C2.34901 0.545454 1.72469 0.804057 1.26438 1.26437C0.804059 1.72469 0.545456 2.34901 0.545456 3C0.544783 3.53135 0.718487 4.04825 1.03991 4.47136Z" fill="url(#paint1_linear_419_4039)"/>
<defs>
<linearGradient id="paint0_linear_419_4039" x1="2.99938" y1="1.63672" x2="2.99938" y2="4.36399" gradientUnits="userSpaceOnUse">
<stop stop-color="#15CBE4"/>
<stop offset="1" stop-color="#25D082"/>
</linearGradient>
<linearGradient id="paint1_linear_419_4039" x1="3" y1="0" x2="3" y2="7.63636" gradientUnits="userSpaceOnUse">
<stop stop-color="#15CBE4"/>
<stop offset="1" stop-color="#25D082"/>
</linearGradient>
</defs>
</svg>
