<svg width="17" height="21" viewBox="0 0 17 21" fill="none" xmlns="http://www.w3.org/2000/svg">
<path fill-rule="evenodd" clip-rule="evenodd" d="M9.12479 1.06329C9.12479 0.781289 9.01276 0.510836 8.81336 0.311431C8.61395 0.112025 8.3435 0 8.0615 0C7.7795 0 7.50904 0.112025 7.30964 0.311431C7.11023 0.510836 6.99821 0.781289 6.99821 1.06329V1.86076H6.40595C5.26614 1.86068 4.16914 2.295 3.33828 3.07529C2.50742 3.85558 2.00516 4.92318 1.93375 6.06076L1.69876 9.81843C1.60916 11.2512 1.12809 12.6318 0.307978 13.81C0.138525 14.0536 0.0349858 14.3369 0.00743085 14.6323C-0.0201241 14.9277 0.0292429 15.2252 0.150731 15.4959C0.272218 15.7666 0.461691 16.0013 0.700724 16.1771C0.939756 16.3529 1.22021 16.4638 1.51481 16.4991L5.13745 16.9329V18.076C5.13745 18.8515 5.44552 19.5952 5.99388 20.1436C6.54225 20.6919 7.28599 21 8.0615 21C8.837 21 9.58075 20.6919 10.1291 20.1436C10.6775 19.5952 10.9855 18.8515 10.9855 18.076V16.9329L14.6082 16.498C14.9026 16.4626 15.1829 16.3517 15.4218 16.176C15.6606 16.0002 15.85 15.7657 15.9715 15.4952C16.0929 15.2247 16.1424 14.9273 16.115 14.632C16.0875 14.3367 15.9842 14.0536 15.815 13.81C14.9949 12.6319 14.5138 11.2512 14.4242 9.81843L14.1892 6.06182C14.1181 4.92406 13.616 3.85619 12.7851 3.07568C11.9542 2.29516 10.857 1.8607 9.71704 1.86076H9.12479V1.06329ZM6.40595 3.4557C5.67183 3.45561 4.96527 3.73531 4.43012 4.23786C3.89498 4.74041 3.57148 5.42803 3.5255 6.16071L3.29157 9.91838C3.18348 11.642 2.6046 13.3028 1.61795 14.7202C1.60569 14.7378 1.5982 14.7583 1.59619 14.7797C1.59419 14.801 1.59775 14.8226 1.60653 14.8421C1.6153 14.8617 1.629 14.8787 1.64628 14.8914C1.66356 14.9042 1.68384 14.9122 1.70514 14.9148L5.67866 15.3922C7.2619 15.5815 8.86109 15.5815 10.4443 15.3922L14.4179 14.9148C14.4392 14.9122 14.4594 14.9042 14.4767 14.8914C14.494 14.8787 14.5077 14.8617 14.5165 14.8421C14.5252 14.8226 14.5288 14.801 14.5268 14.7797C14.5248 14.7583 14.5173 14.7378 14.505 14.7202C13.5188 13.3027 12.9403 11.6419 12.8325 9.91838L12.5975 6.16071C12.5515 5.42803 12.228 4.74041 11.6929 4.23786C11.1577 3.73531 10.4512 3.45561 9.71704 3.4557H6.40595ZM8.0615 19.4051C7.32783 19.4051 6.73238 18.8096 6.73238 18.076V17.2785H9.39061V18.076C9.39061 18.8096 8.79517 19.4051 8.0615 19.4051Z" fill="black"/>
</svg>
