<svg width="11" height="11" viewBox="0 0 11 11" fill="none" xmlns="http://www.w3.org/2000/svg">
<path d="M10.3583 11C9.08519 11 7.82731 10.7226 6.58472 10.1677C5.34213 9.61278 4.21157 8.82587 3.19306 7.80694C2.17454 6.78802 1.38783 5.65746 0.832944 4.41528C0.278056 3.17309 0.000407407 1.91522 0 0.641667C0 0.458333 0.0611111 0.305556 0.183333 0.183333C0.305556 0.0611111 0.458333 0 0.641667 0H3.11667C3.25926 0 3.38657 0.0484814 3.49861 0.145444C3.61065 0.242407 3.67685 0.356889 3.69722 0.488889L4.09444 2.62778C4.11481 2.79074 4.10972 2.92824 4.07917 3.04028C4.04861 3.15231 3.99259 3.24907 3.91111 3.33056L2.42917 4.82778C2.63287 5.20463 2.87467 5.56865 3.15456 5.91983C3.43444 6.27102 3.74265 6.60978 4.07917 6.93611C4.39491 7.25185 4.72593 7.54478 5.07222 7.81489C5.41852 8.085 5.78519 8.33189 6.17222 8.55556L7.60833 7.11944C7.7 7.02778 7.81978 6.95913 7.96767 6.9135C8.11556 6.86787 8.26059 6.85504 8.40278 6.875L10.5111 7.30278C10.6537 7.34352 10.7708 7.41746 10.8625 7.52461C10.9542 7.63176 11 7.75133 11 7.88333V10.3583C11 10.5417 10.9389 10.6944 10.8167 10.8167C10.6944 10.9389 10.5417 11 10.3583 11ZM1.84861 3.66667L2.85694 2.65833L2.59722 1.22222H1.2375C1.28843 1.63981 1.35972 2.05231 1.45139 2.45972C1.54306 2.86713 1.67546 3.26944 1.84861 3.66667ZM7.31806 9.13611C7.71528 9.30926 8.12024 9.44676 8.53294 9.54861C8.94565 9.65046 9.36059 9.71667 9.77778 9.74722V8.40278L8.34167 8.1125L7.31806 9.13611Z" fill="url(#paint0_linear_756_922)" fill-opacity="0.8"/>
<defs>
<linearGradient id="paint0_linear_756_922" x1="11.55" y1="10.9993" x2="1.6508" y2="-1.10058" gradientUnits="userSpaceOnUse">
<stop stop-color="#4AD49D"/>
<stop offset="1" stop-color="#63C7D3"/>
</linearGradient>
</defs>
</svg>
