<svg width="16" height="15" viewBox="0 0 16 15" fill="none" xmlns="http://www.w3.org/2000/svg">
<path d="M14.8712 14.3978C14.7763 14.3992 14.6828 14.3751 14.6003 14.3283C14.5178 14.2814 14.4493 14.2134 14.4019 14.1312C13.6916 12.9212 12.6793 11.9165 11.464 11.2153C10.2487 10.5142 8.87214 10.1407 7.46914 10.1315V13.3313C7.46861 13.4365 7.43693 13.5393 7.37809 13.6266C7.31925 13.7139 7.23589 13.7819 7.1385 13.8219C7.04138 13.8627 6.93434 13.8739 6.83089 13.8539C6.72744 13.834 6.63221 13.7839 6.55721 13.7099L0.157746 7.31042C0.107762 7.26085 0.068088 7.20186 0.0410136 7.13688C0.0139392 7.07189 0 7.00219 0 6.93179C0 6.86139 0.0139392 6.79168 0.0410136 6.7267C0.068088 6.66171 0.107762 6.60273 0.157746 6.55315L6.55721 0.153687C6.63221 0.0796887 6.72744 0.0295615 6.83089 0.00963032C6.93434 -0.0103009 7.04138 0.00085694 7.1385 0.0416959C7.23589 0.0817033 7.31925 0.149643 7.37809 0.236953C7.43693 0.324264 7.46861 0.427037 7.46914 0.532322V3.79072C9.67546 4.0741 11.7035 5.15004 13.1752 6.81802C14.647 8.48599 15.462 10.6322 15.4685 12.8566C15.4677 13.2133 15.4445 13.5695 15.3991 13.9232C15.3858 14.0342 15.338 14.1381 15.2624 14.2204C15.1868 14.3027 15.0873 14.3592 14.9778 14.3818L14.8712 14.3978ZM7.20249 9.06494C8.56259 9.04541 9.91072 9.3214 11.1537 9.87385C12.3967 10.4263 13.505 11.242 14.4019 12.2647C14.2414 10.3301 13.397 8.516 12.0199 7.14776C10.6429 5.77952 8.82341 4.94668 6.88785 4.79863C6.75489 4.78662 6.63127 4.72517 6.54142 4.62643C6.45157 4.52769 6.40202 4.39884 6.40256 4.26534V1.81755L1.28832 6.93179L6.40256 12.046V9.59823C6.40256 9.45679 6.45874 9.32115 6.55875 9.22114C6.65877 9.12113 6.79441 9.06494 6.93585 9.06494H7.22382H7.20249Z" fill="#707070"/>
</svg>
